<?xml version="1.0" standalone="no"?>
<!DOCTYPE svg PUBLIC "-//W3C//DTD SVG 20010904//EN"
 "http://www.w3.org/TR/2001/REC-SVG-20010904/DTD/svg10.dtd">
<svg version="1.0" xmlns="http://www.w3.org/2000/svg"
 width="500.000000pt" height="500.000000pt" viewBox="0 0 500.000000 500.000000"
 preserveAspectRatio="xMidYMid meet">

<g transform="translate(0.000000,500.000000) scale(0.100000,-0.100000)"
fill="#000000" stroke="none">
<path d="M2355 4914 c-16 -2 -82 -9 -145 -15 -286 -27 -656 -148 -908 -296
-247 -145 -424 -287 -603 -486 -80 -89 -112 -130 -208 -262 -94 -131 -218
-379 -285 -574 -87 -250 -115 -420 -123 -736 -4 -197 -2 -253 16 -391 60 -458
262 -898 576 -1254 228 -259 516 -475 810 -608 300 -136 533 -196 865 -223
156 -13 306 -6 510 22 168 24 219 36 390 91 314 102 609 271 868 497 249 217
462 504 599 806 98 215 150 380 185 590 30 180 33 608 4 790 -35 229 -93 422
-192 639 -122 266 -262 464 -484 687 -231 231 -465 392 -753 519 -229 100
-433 159 -644 185 -117 15 -420 27 -478 19z m506 -163 c276 -48 469 -112 697
-232 349 -182 601 -402 838 -732 80 -111 193 -321 249 -461 41 -104 103 -331
128 -469 29 -165 32 -577 4 -727 -77 -411 -220 -735 -458 -1041 -183 -233
-438 -454 -677 -585 -217 -119 -318 -162 -514 -218 -240 -69 -332 -81 -618
-81 -220 0 -271 3 -375 22 -126 24 -367 88 -451 121 -524 208 -966 605 -1223
1102 -112 217 -172 396 -223 665 -31 163 -33 550 -5 720 71 420 210 740 474
1085 73 96 266 289 363 364 188 143 418 274 624 352 151 58 415 117 611 138
105 11 444 -3 556 -23z m-1594 -277 c-3 -3 -12 -4 -19 -1 -8 3 -5 6 6 6 11 1
17 -2 13 -5z m-240 -180 c-3 -3 -12 -4 -19 -1 -8 3 -5 6 6 6 11 1 17 -2 13 -5z"/>
<path d="M2195 4694 c-380 -48 -801 -236 -1115 -498 -419 -349 -702 -850 -777
-1376 -24 -173 -24 -500 0 -670 43 -297 166 -614 339 -874 93 -137 196 -266
215 -266 7 0 13 -6 13 -13 0 -15 150 -164 237 -235 161 -131 399 -269 608
-352 274 -108 649 -165 936 -141 334 28 559 90 852 237 122 62 314 187 417
273 81 68 230 212 230 223 0 4 -25 8 -57 8 -31 0 -53 3 -50 7 4 3 34 5 66 4
l60 -2 55 68 c63 76 61 86 -20 85 -38 -1 -44 2 -44 19 0 19 4 20 33 14 17 -4
52 -7 76 -8 l45 -2 63 95 c70 104 166 294 219 434 181 471 176 1080 -12 1558
-238 605 -707 1062 -1331 1299 -142 54 -307 95 -451 113 -152 20 -453 19 -607
0z m-221 -153 c-7 -34 -17 -31 -28 6 -5 16 -2 22 11 25 24 6 24 6 17 -31z
m122 -231 c94 -264 155 -445 145 -434 -5 5 -32 50 -59 99 -27 50 -81 146 -121
215 -39 69 -71 137 -71 152 0 46 26 165 35 157 2 -3 34 -88 71 -189z m-174 5
c29 -33 108 -171 108 -190 0 -16 -122 60 -149 92 -27 33 -78 154 -97 230 -7
28 15 7 138 -132z m1511 87 c-3 -9 -46 -107 -96 -217 -49 -110 -101 -231 -114
-270 -39 -108 -39 -108 -68 -89 l-24 15 30 66 c16 37 28 71 26 77 -2 5 -23
-18 -47 -52 -24 -34 -47 -62 -51 -62 -16 0 -39 13 -39 22 0 5 37 60 83 121 93
127 136 190 139 209 2 7 10 18 18 25 9 6 42 50 74 97 33 47 63 83 67 80 5 -2
5 -12 2 -22z m-1013 -62 c0 -5 -2 -10 -4 -10 -3 0 -8 5 -11 10 -3 6 -1 10 4
10 6 0 11 -4 11 -10z m-790 -102 c0 -6 -6 -5 -15 2 -8 7 -15 14 -15 16 0 2 7
1 15 -2 8 -4 15 -11 15 -16z m139 -24 c47 -13 57 -23 126 -112 132 -170 204
-272 192 -272 -32 1 -423 353 -430 387 -4 23 -2 24 28 19 19 -4 56 -13 84 -22z
m1291 -26 c0 -30 -37 -118 -77 -180 -37 -59 -56 -76 -160 -146 -65 -44 -136
-94 -158 -112 -22 -17 -41 -27 -43 -20 -2 6 2 34 8 63 38 159 206 393 233 325
4 -9 11 -7 24 8 10 11 38 26 63 33 25 7 56 19 70 27 32 17 40 17 40 2z m-680
-59 c0 -6 -4 -7 -10 -4 -5 3 -10 11 -10 16 0 6 5 7 10 4 6 -3 10 -11 10 -16z
m-950 1 c0 -12 -47 -12 -75 0 -15 6 -8 9 28 9 26 1 47 -3 47 -9z m690 -168
c33 -62 57 -112 55 -112 -3 0 -139 167 -219 269 -6 7 15 0 47 -16 57 -28 60
-32 117 -141z m350 128 c0 -11 -6 -20 -14 -20 -21 0 -31 21 -15 31 22 14 29
11 29 -11z m965 -269 c17 -66 43 -126 76 -173 11 -14 19 -38 19 -52 0 -36 -36
-127 -81 -206 -37 -64 -144 -178 -156 -167 -3 3 3 30 13 59 19 55 24 201 14
418 -5 105 16 215 54 284 l21 38 11 -68 c7 -38 20 -98 29 -133z m-2515 19 c0
-5 -2 -10 -4 -10 -3 0 -8 5 -11 10 -3 6 -1 10 4 10 6 0 11 -4 11 -10z m840
-11 c0 -5 -7 -9 -15 -9 -15 0 -20 12 -9 23 8 8 24 -1 24 -14z m439 -282 c312
-166 631 -408 905 -685 l88 -90 -26 -17 -27 -18 -127 124 c-120 118 -292 270
-313 277 -6 2 -24 17 -42 34 -18 16 -50 42 -72 57 -253 174 -385 254 -557 337
-32 16 -58 31 -58 35 0 13 46 28 70 23 14 -3 85 -37 159 -77z m701 43 c0 -5
-7 -7 -15 -4 -8 4 -15 8 -15 10 0 2 7 4 15 4 8 0 15 -4 15 -10z m-849 -258
c165 -104 252 -163 347 -236 175 -134 362 -295 362 -313 0 -7 6 -10 13 -7 13
4 64 -54 59 -68 -1 -5 4 -8 11 -8 7 0 37 -24 66 -54 43 -44 50 -54 36 -60 -17
-6 -76 40 -135 105 -52 58 -280 254 -410 353 -215 163 -381 271 -564 367 -92
48 -106 58 -90 67 22 12 155 -52 305 -146z m-309 87 c102 -52 383 -226 473
-293 39 -29 105 -78 148 -110 43 -33 126 -99 185 -147 68 -57 115 -89 132 -90
17 -1 19 -3 8 -6 -23 -6 -23 -19 1 -35 10 -7 62 -54 115 -103 l96 -89 -92 -93
c-51 -51 -96 -93 -100 -93 -3 0 -51 42 -106 93 -312 292 -510 450 -839 672
-81 55 -172 124 -202 154 l-53 54 31 13 c17 7 57 31 88 54 31 22 60 40 65 40
5 0 27 -9 50 -21z m2663 -96 c-21 -32 -62 -90 -92 -129 l-54 -72 -187 -80
c-152 -64 -192 -78 -214 -71 -30 8 -50 -7 -28 -21 9 -6 1 -13 -26 -25 -39 -17
-134 -33 -134 -22 0 13 71 47 101 48 19 1 26 3 17 6 -10 2 -18 8 -18 12 0 15
659 424 669 415 2 -2 -13 -30 -34 -61z m-3670 7 c3 -5 -1 -10 -9 -10 -9 0 -16
5 -16 10 0 6 4 10 9 10 6 0 13 -4 16 -10z m-20 -110 c3 -5 2 -10 -4 -10 -5 0
-13 5 -16 10 -3 6 -2 10 4 10 5 0 13 -4 16 -10z m892 -106 c3 -7 9 -11 14 -8
5 3 9 0 9 -5 0 -6 7 -11 17 -11 9 0 31 -11 49 -25 18 -14 37 -25 42 -25 11 0
202 -131 262 -179 25 -21 59 -46 76 -57 35 -21 239 -192 319 -266 27 -25 80
-72 116 -105 37 -32 81 -75 99 -96 32 -37 32 -37 15 -64 l-18 -27 -26 30 c-14
17 -53 55 -86 85 -33 29 -59 58 -57 64 2 5 0 7 -4 3 -3 -4 -39 21 -78 56 -39
35 -98 84 -131 110 -33 25 -105 81 -159 124 -54 42 -131 100 -171 127 -138 96
-255 186 -256 195 -1 6 -3 15 -4 20 -1 6 -3 15 -4 20 0 6 -10 10 -22 10 -24 0
-43 18 -45 42 -1 14 2 16 18 7 10 -6 22 -17 25 -25z m2942 19 c0 -8 -91 -83
-147 -120 -50 -35 -82 -50 -152 -72 -56 -17 -79 -19 -164 -13 l-98 7 97 48
c87 43 100 47 127 38 39 -14 51 -14 43 -1 -3 6 -18 10 -33 10 -50 1 61 49 143
62 41 6 72 14 69 17 -3 3 18 11 48 17 70 15 68 15 67 7z m-3161 -89 c51 -31
133 -83 182 -117 49 -34 111 -75 137 -92 51 -31 199 -142 332 -248 201 -161
490 -442 472 -460 -18 -18 -57 10 -155 112 -253 260 -730 635 -1034 811 -55
32 -69 50 -38 50 5 0 52 -25 104 -56z m-108 -24 c90 -53 334 -220 321 -220 -7
0 -10 -4 -6 -10 3 -5 12 -7 20 -4 31 12 385 -267 618 -488 73 -70 79 -77 49
-69 -27 8 -36 6 -51 -10 -19 -21 -20 -20 -138 73 -65 51 -140 108 -168 127
-27 19 -81 58 -120 87 -38 29 -105 74 -147 100 -42 27 -130 85 -195 129 -64
44 -122 82 -128 85 -54 26 -195 115 -195 124 0 9 78 106 86 106 2 0 26 -14 54
-30z m-807 -150 c5 -4 7 -15 5 -25 -2 -13 -10 -11 -45 17 -24 18 -43 36 -43
40 0 8 70 -19 83 -32z m3570 30 l82 -1 -55 -20 c-45 -16 -69 -18 -129 -13
l-74 7 34 18 c19 10 40 16 47 14 8 -3 50 -5 95 -5z m422 -42 c58 -23 104 -43
102 -44 -6 -6 -144 -33 -193 -38 -27 -2 -76 -9 -109 -15 -136 -24 -460 -60
-467 -53 -9 9 503 190 539 191 12 1 69 -18 128 -41z m-3321 -6 c28 -21 65 -46
81 -56 33 -21 217 -156 225 -166 3 -3 16 -10 30 -16 14 -6 58 -37 99 -68 41
-31 80 -56 88 -56 7 0 13 -4 13 -8 0 -5 69 -62 153 -126 241 -185 288 -224
347 -280 30 -29 81 -74 113 -101 31 -26 57 -51 57 -56 0 -4 -10 -19 -22 -33
l-23 -26 -73 58 c-65 51 -145 110 -441 324 -47 33 -150 105 -230 160 -80 56
-173 120 -206 144 -33 25 -125 88 -205 140 -80 53 -146 100 -148 104 -5 13 62
99 77 99 8 1 37 -16 65 -37z m2516 13 c-14 -8 -34 -14 -44 -15 -20 0 -20 0 0
15 10 8 30 14 44 14 l25 0 -25 -14z m250 -32 c0 -12 -208 -61 -222 -52 -24 15
92 57 160 58 34 1 62 -2 62 -6z m-3270 -47 c15 0 25 -7 25 -16 0 -24 32 -42
64 -35 37 8 59 -15 36 -38 -12 -13 -13 -20 -3 -41 24 -54 -7 -45 -103 27 -95
72 -127 101 -134 124 l-6 23 48 -21 c26 -12 59 -22 73 -23z m801 -362 c63 -44
208 -146 322 -229 114 -82 253 -184 310 -225 57 -41 126 -93 153 -115 27 -21
51 -41 53 -42 3 -2 -6 -15 -20 -29 l-26 -25 -120 98 c-161 132 -382 304 -528
412 -100 74 -125 88 -150 85 -27 -3 -28 -3 -5 4 l25 8 -30 20 c-16 10 -73 51
-125 90 -52 39 -151 108 -220 154 -145 96 -144 95 -136 109 6 9 205 -117 497
-315z m-496 114 c50 -37 188 -135 469 -332 22 -16 100 -72 171 -125 72 -53
142 -106 157 -116 97 -71 412 -324 415 -334 1 -3 -4 -15 -12 -25 -14 -18 -20
-14 -132 75 -65 52 -143 113 -173 136 -30 23 -79 61 -109 84 -55 43 -76 49
-183 49 -22 0 -38 4 -38 11 0 8 21 10 66 7 66 -4 66 -4 43 14 -13 11 -33 27
-44 36 -51 42 -141 105 -167 117 -16 6 -30 16 -30 21 -2 20 -61 53 -87 48 -14
-2 -33 0 -41 6 -13 9 -13 12 1 23 15 11 11 17 -33 47 -27 19 -62 44 -76 56
-15 12 -65 47 -112 79 -167 115 -208 154 -184 178 9 8 27 -2 99 -55z m2919 -5
c37 -37 72 -77 76 -88 15 -39 33 -255 28 -338 -4 -71 -12 -102 -62 -227 -120
-298 -219 -468 -451 -770 -91 -118 -299 -347 -348 -382 -17 -12 -68 -56 -112
-96 -44 -40 -108 -93 -142 -118 -62 -44 -120 -73 -108 -54 3 6 13 10 20 10 8
0 41 25 72 55 32 31 83 73 113 93 97 67 403 402 527 578 31 44 62 86 70 94 70
77 199 294 237 403 12 34 28 73 35 86 37 68 92 252 101 339 11 102 5 147 -35
247 -13 33 -27 72 -30 87 -11 43 -28 51 -103 46 -55 -4 -90 -16 -192 -63 -143
-66 -230 -122 -230 -148 0 -10 -65 -82 -144 -160 -79 -78 -149 -153 -156 -166
-12 -23 -115 -146 -177 -211 -19 -19 -54 -64 -77 -100 -24 -36 -70 -97 -102
-136 -33 -39 -77 -97 -99 -128 -22 -32 -70 -98 -108 -147 -37 -50 -69 -95 -70
-100 -1 -6 -19 -29 -40 -52 -21 -23 -52 -71 -69 -107 -17 -36 -45 -87 -63
-115 -90 -143 -141 -309 -131 -428 4 -61 3 -68 -12 -63 -9 2 -29 7 -44 10 -26
6 -28 10 -28 57 0 29 11 84 26 127 36 104 155 342 239 477 37 61 83 134 101
164 18 30 31 58 27 64 -3 6 -2 8 3 4 5 -3 52 56 104 130 52 74 102 143 110
152 14 15 58 72 203 261 63 82 222 271 278 330 24 25 42 48 41 53 -1 4 3 7 9
7 7 0 44 33 83 73 40 40 101 95 136 121 36 27 81 62 100 77 38 30 162 95 207
109 15 5 48 9 73 9 42 1 49 -3 114 -66z m446 57 c0 -5 -9 -10 -21 -10 -11 0
-17 5 -14 10 3 6 13 10 21 10 8 0 14 -4 14 -10z m-5 -120 c3 -6 -4 -10 -17
-10 -18 0 -20 2 -8 10 19 12 18 12 25 0z m-3429 -188 c432 -310 451 -323 482
-315 24 6 26 5 14 -10 -14 -17 0 -29 203 -172 31 -22 113 -82 182 -132 69 -51
129 -93 133 -93 5 0 20 4 34 10 23 8 26 7 26 -11 0 -17 -5 -20 -21 -16 -25 7
-24 6 53 -52 l57 -42 -21 -35 c-11 -19 -24 -34 -29 -32 -7 3 -130 92 -372 271
-73 53 -99 67 -127 67 -30 -1 -33 -3 -19 -13 59 -46 174 -131 226 -168 34 -24
104 -77 157 -116 52 -40 99 -73 105 -73 16 0 14 -6 -16 -58 -43 -76 -41 -75
-82 -43 -20 16 -49 41 -64 55 -36 33 -247 196 -331 256 -35 25 -115 84 -177
131 -268 202 -391 290 -506 362 -67 43 -126 77 -132 77 -21 0 -20 20 5 76 14
33 28 61 30 63 2 2 13 -4 23 -13 11 -10 60 -46 109 -79 130 -89 285 -201 462
-332 126 -94 161 -115 188 -115 30 0 33 2 21 16 -7 8 -29 24 -49 34 -20 10
-51 32 -69 49 -18 17 -141 109 -273 203 -133 95 -276 199 -320 231 l-78 57 15
31 c9 17 20 29 24 27 5 -2 66 -45 137 -96z m657 11 c-7 -2 -19 -2 -25 0 -7 3
-2 5 12 5 14 0 19 -2 13 -5z m945 -206 c24 9 62 -7 62 -26 0 -27 -22 -41 -64
-43 -31 -1 -45 6 -84 44 -26 25 -62 55 -79 67 -18 12 -33 29 -33 38 0 11 25 1
93 -35 50 -27 98 -47 105 -45z m947 73 c-3 -5 -20 -19 -38 -30 l-32 -22 35 31
c35 32 46 38 35 21z m324 -95 c-12 -29 -13 -30 -17 -6 -2 13 0 45 4 70 l7 46
10 -40 c6 -28 5 -49 -4 -70z m-3020 -53 c8 -7 26 -21 40 -30 14 -9 82 -59 150
-110 68 -52 131 -96 140 -100 9 -3 32 -18 52 -34 20 -15 44 -28 53 -28 9 0 15
-4 14 -9 -2 -5 19 -26 45 -46 27 -20 52 -48 57 -61 7 -17 17 -24 36 -24 25 0
69 -30 224 -155 41 -33 83 -64 92 -70 47 -27 237 -171 237 -180 0 -5 -6 -19
-14 -29 -14 -19 -16 -19 -67 9 -29 16 -88 50 -132 77 -43 27 -86 47 -95 46 -9
-2 -15 3 -14 9 2 7 -23 29 -55 49 -133 85 -375 255 -517 363 -55 42 -112 84
-126 93 -14 9 -76 57 -138 106 -61 50 -117 92 -123 94 -9 3 -9 15 1 49 21 71
27 74 80 31 25 -20 52 -43 60 -50z m2496 -59 c-49 -45 -105 -87 -105 -80 0 11
62 80 101 113 61 51 65 22 4 -33z m-1750 52 c-24 -8 -125 -11 -125 -3 0 4 30
8 68 7 37 0 63 -2 57 -4z m2816 -171 c10 -114 10 -129 -5 -139 -23 -17 -20
-23 12 -28 26 -5 26 -5 -3 -3 l-30 1 -9 118 c-9 126 -1 224 15 195 5 -9 14
-73 20 -144z m-638 30 c-16 -48 -93 -138 -100 -117 -7 19 46 121 74 143 38 30
43 25 26 -26z m-574 -105 c2 -29 -62 -111 -108 -140 -25 -16 -48 -29 -53 -29
-21 0 48 108 126 198 19 21 21 22 27 5 4 -10 8 -25 8 -34z m-2270 -5 c18 -9
35 -22 38 -30 3 -8 9 -12 13 -9 5 3 16 -5 25 -17 8 -13 19 -23 23 -22 4 0 41
-25 84 -55 42 -31 119 -87 172 -125 53 -38 96 -73 96 -78 0 -5 4 -7 9 -3 5 3
13 0 17 -6 4 -8 3 -9 -4 -5 -7 4 -12 2 -12 -4 0 -7 -22 6 -49 27 -27 21 -77
58 -110 82 -34 24 -61 48 -61 53 0 5 -5 6 -10 3 -6 -3 -13 1 -16 9 -3 9 -9 14
-14 11 -4 -2 -25 10 -46 29 -21 18 -70 56 -109 86 -102 77 -109 85 -46 54z
m2526 -24 c-32 -61 -193 -285 -262 -363 -26 -30 -59 -74 -73 -97 -31 -52 -229
-259 -203 -212 10 18 61 86 113 150 225 276 319 394 375 474 62 88 79 105 50
48z m-795 -30 c0 -5 -5 -10 -11 -10 -5 0 -7 5 -4 10 3 6 8 10 11 10 2 0 4 -4
4 -10z m788 -102 c-23 -45 -56 -101 -73 -123 -17 -22 -51 -69 -77 -105 -25
-36 -61 -78 -79 -95 -39 -35 -25 -13 44 67 26 32 67 90 90 130 50 85 129 208
134 208 2 0 -15 -37 -39 -82z m988 -45 c13 -81 19 -93 41 -93 13 0 13 -3 3
-15 -7 -8 -10 -24 -7 -35 3 -11 1 -23 -4 -26 -5 -3 -7 -10 -4 -15 4 -5 1 -9
-6 -9 -6 0 -27 -16 -45 -35 -18 -19 -35 -31 -39 -26 -11 19 -18 168 -11 244 6
59 11 77 24 80 31 8 36 1 48 -70z m-860 -7 c-14 -35 -26 -68 -26 -73 0 -5 -11
-20 -25 -33 l-25 -23 0 51 c0 43 5 57 33 89 35 41 60 63 65 58 2 -2 -8 -33
-22 -69z m-963 37 c-7 -2 -21 -2 -30 0 -10 3 -4 5 12 5 17 0 24 -2 18 -5z
m-1086 -9 c-3 -3 -12 -4 -19 -1 -8 3 -5 6 6 6 11 1 17 -2 13 -5z m1490 -52
l23 -17 -81 -85 c-45 -47 -106 -116 -137 -154 -46 -57 -56 -66 -64 -52 -7 13
3 34 45 89 29 40 80 109 111 155 32 45 63 82 69 82 7 0 22 -8 34 -18z m-1501
-184 c4 -7 3 -8 -4 -4 -7 4 -12 3 -12 -2 0 -6 -10 -7 -22 -4 -23 6 -23 6 2 13
14 4 26 7 27 8 1 1 5 -4 9 -11z m-141 -18 c3 -5 -1 -10 -9 -10 -9 0 -16 5 -16
10 0 6 4 10 9 10 6 0 13 -4 16 -10z m3079 -10 c30 -11 34 -30 7 -30 -32 0 -50
11 -44 26 6 17 5 17 37 4z m-358 -21 c3 -6 2 -15 -3 -20 -13 -13 -43 -1 -43
17 0 16 36 19 46 3z m-2615 -39 l24 -19 -27 -1 c-18 0 -28 5 -28 14 0 8 -6 17
-12 19 -8 4 -7 6 3 6 9 1 27 -8 40 -19z m202 -25 c-1 -5 4 -17 10 -25 10 -13
10 -13 -5 -2 -9 8 -22 11 -28 7 -5 -3 -10 -4 -10 -1 0 2 -3 12 -6 21 -5 13 -2
16 17 13 13 -1 23 -7 22 -13z m-706 -21 c-3 -3 -12 -4 -19 -1 -8 3 -5 6 6 6
11 1 17 -2 13 -5z m2165 -31 c-6 -10 -39 -45 -73 -78 -71 -69 -58 -42 22 43
55 59 69 68 51 35z m-2152 -14 c0 -5 -9 -9 -20 -9 -19 0 -26 11 -14 23 8 8 34
-3 34 -14z m395 11 c4 -6 -5 -10 -19 -10 -14 0 -26 5 -26 10 0 6 9 10 19 10
11 0 23 -4 26 -10z m254 -32 c-12 -45 -60 -101 -93 -109 -22 -6 -25 -5 -16 6
6 7 7 16 2 19 -13 8 -2 63 17 79 16 14 66 35 88 36 8 1 9 -8 2 -31z m256 -49
c-6 -9 8 -13 32 -10 8 1 10 -5 7 -14 -6 -14 -9 -14 -27 -2 -19 13 -35 53 -16
41 5 -3 7 -10 4 -15z m1172 -125 c-3 -3 -12 -4 -19 -1 -8 3 -5 6 6 6 11 1 17
-2 13 -5z m90 -46 c-32 -52 -148 -149 -155 -130 -2 6 8 33 22 61 22 43 35 55
93 85 38 19 69 35 70 35 1 1 -12 -22 -30 -51z m-2067 16 c0 -8 -4 -14 -9 -14
-11 0 -22 26 -14 34 9 9 23 -3 23 -20z m867 -10 c-3 -3 -12 -4 -19 -1 -8 3 -5
6 6 6 11 1 17 -2 13 -5z m2193 -24 c13 -8 13 -10 -2 -10 -9 0 -20 5 -23 10 -8
13 5 13 25 0z m-2773 -6 c-3 -3 -12 -4 -19 -1 -8 3 -5 6 6 6 11 1 17 -2 13 -5z
m1413 -229 c0 -18 -57 -55 -84 -55 -19 0 -19 0 0 21 15 17 63 46 82 49 1 0 2
-7 2 -15z m-490 -5 c0 -5 -4 -10 -9 -10 -6 0 -13 5 -16 10 -3 6 1 10 9 10 9 0
16 -4 16 -10z m308 -26 c-9 -9 -21 -13 -27 -9 -16 10 -3 25 22 25 20 0 20 -1
5 -16z"/>
<path d="M2700 2680 c0 -5 4 -10 9 -10 6 0 13 5 16 10 3 6 -1 10 -9 10 -9 0
-16 -4 -16 -10z"/>
<path d="M1955 2830 c-3 -5 1 -10 9 -10 9 0 16 5 16 10 0 6 -4 10 -9 10 -6 0
-13 -4 -16 -10z"/>
<path d="M2410 2450 c0 -5 5 -10 11 -10 5 0 7 5 4 10 -3 6 -8 10 -11 10 -2 0
-4 -4 -4 -10z"/>
<path d="M1610 2690 c19 -13 30 -13 30 0 0 6 -10 10 -22 10 -19 0 -20 -2 -8
-10z"/>
<path d="M4145 2821 c-3 -5 -1 -12 5 -16 12 -7 30 2 30 16 0 12 -27 12 -35 0z"/>
<path d="M4235 2800 c-3 -5 -1 -10 4 -10 6 0 11 5 11 10 0 6 -2 10 -4 10 -3 0
-8 -4 -11 -10z"/>
<path d="M3150 2150 c0 -5 5 -10 10 -10 6 0 10 5 10 10 0 6 -4 10 -10 10 -5 0
-10 -4 -10 -10z"/>
<path d="M1156 1590 c-15 -5 -16 -9 -7 -14 7 -5 18 -3 24 3 14 14 6 20 -17 11z"/>
</g>
</svg>
